<?xml version="1.0" standalone="no"?>
<!DOCTYPE svg PUBLIC "-//W3C//DTD SVG 1.1//EN" "http://www.w3.org/Graphics/SVG/1.1/DTD/svg11.dtd" >
<svg xmlns="http://www.w3.org/2000/svg">
<metadata>
This is a custom SVG webfont generated by Font Squirrel.
Copyright   : 2009  2011 The League of Moveable Type
Designer    : The League of Moveable Type
</metadata>
<defs>
<font id="LeagueGothicRegular" horiz-adv-x="686" >
<font-face units-per-em="2048" ascent="1505" descent="-543" />
<missing-glyph horiz-adv-x="315" />
<glyph unicode=" "  horiz-adv-x="315" />
<glyph unicode="&#x09;" horiz-adv-x="315" />
<glyph unicode="&#xa0;" horiz-adv-x="315" />
<glyph unicode="!" horiz-adv-x="387" d="M74 1505l55 -1099h129l55 1099h-239zM86 0h215v227h-215v-227z" />
<glyph unicode="&#x22;" horiz-adv-x="532" d="M78 1505l31 -551h153l31 551h-215zM332 1505l30 -551h154l31 551h-215z" />
<glyph unicode="#" horiz-adv-x="1232" d="M49 438h199l-60 -438h197l59 438h261l-60 -438h197l59 438h191l26 195h-190l37 258h192l27 194h-193l58 420h-197l-57 -420h-260l57 420h-197l-57 -420h-197l-26 -194h196l-37 -258h-198zM471 633l37 258h260l-37 -258h-260z" />
<glyph unicode="$" horiz-adv-x="692" d="M37 358q4 -133 61 -227q63 -102 189 -125v-221h123v217q127 14 192 127q53 90 53 242q0 66 -18 127q-37 109 -119 225q-63 90 -69 98q-80 106 -115 166q-57 96 -58 172q0 59 20.5 110.5t63.5 51.5q43 2 64.5 -32t28.5 -93l192 25q-14 119 -63 186q-61 86 -172 96v125 h-123v-131q-117 -27 -170 -131q-45 -88 -45 -211q0 -66 20 -125q31 -102 117 -227q53 -78 129 -176q18 -27 55 -84q57 -100 58 -174q0 -80 -21 -127q-25 -57 -72 -58q-63 0 -96 58q-29 47 -33 129z" />
<glyph unicode="%" horiz-adv-x="1001" d="M55 911q0 -51 19 -88q43 -88 141 -88q61 0 90 27q66 55 68 149v437q-4 51 -21 86q-47 88 -137 88q-63 0 -92 -27q-68 -57 -68 -147v-437zM158 0h137l547 1505h-131zM178 911v437q-2 10 2 26q12 29 35 29q14 0 21 -8q14 -22 14 -47v-437q0 -55 -35 -55q-41 0 -37 55z M631 158q0 -51 18 -88q45 -86 142 -86q61 0 90 26q65 56 67 148v436q-4 51 -20 88q-47 88 -137 88q-63 0 -93 -27q-68 -57 -67 -149v-436zM754 158v436q-2 10 2 27q12 29 35 28q14 0 20 -8q14 -22 14 -47v-436q0 -12 -4 -29q-12 -29 -30 -29q-16 0 -23 11q-16 20 -14 47z " />
<glyph unicode="&#x26;" horiz-adv-x="854" d="M49 315q0 -133 86 -231q86 -100 217 -100q129 0 252 139q34 -37 68 -62q74 -55 112 -69q18 -8 29 -8v235q-8 2 -35 23q-20 12 -57 53q43 86 70 207q16 75 22 151l-176 33q-27 -154 -47 -211q-63 94 -148 285q89 117 148 227q96 182 28 371q-61 164 -235 164 q-106 0 -160 -52q-109 -98 -110 -276q0 -223 106 -442q-53 -84 -84 -136.5t-58.5 -136.5t-27.5 -164zM268 424q16 88 45 133q72 -131 174 -295q-25 -31 -39 -46t-36.5 -27.5t-49.5 -12.5q-43 0 -69 43q-47 72 -25 205zM311 1270q16 76 72 76q33 0 49 -23q33 -43 29 -123 q0 -96 -101 -252q-31 74 -41 125q-27 111 -8 197z" />
<glyph unicode="'" horiz-adv-x="309" d="M57 1505l31 -551h154l30 551h-215z" />
<glyph unicode="(" horiz-adv-x="561" d="M66 645q0 -197 45 -362q84 -322 247 -580l162 84q-72 102 -129 238q-129 303 -129 620q0 190 41 350q80 313 217 510l-162 84q-82 -127 -147 -280q-145 -340 -145 -664z" />
<glyph unicode=")" horiz-adv-x="561" d="M41 -213l162 -84q80 127 145 279q147 344 148 663q0 197 -45 365q-86 317 -248 579l-162 -84q71 -108 129 -239q129 -311 129 -621q0 -188 -41 -348q-84 -317 -217 -510z" />
<glyph unicode="*" horiz-adv-x="677" d="M74 1251l172 -34l-115 -138l131 -80l76 152l78 -152l131 80l-115 138l172 34l-43 148l-164 -70l19 176h-154l19 -176l-164 70z" />
<glyph unicode="+" horiz-adv-x="1060" d="M74 649h370v-346h172v346h371v172h-371v346h-172v-346h-370v-172z" />
<glyph unicode="," horiz-adv-x="309" d="M45 0h72l-72 -266h102l113 266v227h-215v-227z" />
<glyph unicode="-" horiz-adv-x="444" d="M74 455h297v194h-297v-194z" />
<glyph unicode="." horiz-adv-x="321" d="M53 0h215v227h-215v-227z" />
<glyph unicode="/" horiz-adv-x="720" d="M8 -147h168l537 1652h-162z" />
<glyph unicode="0" horiz-adv-x="724" d="M68 309q4 -94 36 -164q31 -70 86 -110q63 -51 172 -51q106 0 170 51q57 43 89 110q32 70 36 164v887q-4 92 -36 162q-31 70 -89 112q-68 51 -170 52q-104 0 -172 -52q-53 -41 -86 -112q-33 -70 -36 -162v-887zM289 309v887q0 33 8 55q16 55 65 56q29 0 46 -17 q28 -35 28 -94v-887q0 -37 -8 -55q-14 -55 -66 -55q-27 0 -43 16q-31 33 -30 94z" />
<glyph unicode="1" horiz-adv-x="475" d="M25 1180h147v-1180h221v1505h-133q-20 -43 -49 -78q-82 -86 -186 -106v-141z" />
<glyph unicode="2" horiz-adv-x="731" d="M55 0h600v219h-350q129 217 217 422q129 305 129 506q0 174 -61 266q-74 109 -234 109q-166 0 -237 -119q-57 -96 -58 -270v-105h222v105q0 80 14 129q16 55 59 55t62 -62q12 -41 12 -122q-2 -117 -63 -299q-49 -150 -127 -297q-86 -166 -185 -318v-219z" />
<glyph unicode="3" d="M45 1071h217q0 147 14 205q10 51 52 51q47 0 61 -65q8 -39 8 -129v-121q0 -51 -14 -80q-25 -59 -154 -68v-184h19q68 -2 108 -27q61 -41 62 -155q-2 -39 -2 -129t-8 -127q-14 -63 -62 -64q-41 0 -57 53q-18 57 -19 203h-217q0 -188 43 -289q68 -162 250 -161q72 0 119 26 q86 47 129 160q33 96 37 172q2 23 2 43q0 313 -127 414l2 2q106 106 106 397q0 96 -39 176q-72 147 -247 148q-178 0 -244 -160q-39 -96 -39 -291z" />
<glyph unicode="4" horiz-adv-x="684" d="M25 328h342v-328h202v328h103v194h-103v983h-221l-323 -983v-194zM213 522l129 471l12 45h13v-516h-154z" />
<glyph unicode="5" horiz-adv-x="704" d="M74 438q0 -203 43 -301q66 -154 245 -153q176 0 246 145q43 88 43 248v336q0 94 -37 174q-63 137 -208 137q-23 4 -46 -6q-39 -12 -81 -45v313h344v219h-535v-792h186q0 33 25 69q31 41 61 41q70 1 70 -110v-336q0 -113 -16 -158q-16 -43 -52 -43q-39 0 -53 45 q-14 41 -14 158v59h-221z" />
<glyph unicode="6" horiz-adv-x="700" d="M66 309q0 -109 43 -188q72 -137 245.5 -137t245.5 137q43 79 43 188v307q0 115 -37 191q-61 127 -209 127q-47 0 -110 -37v268q0 88 14 125q12 39 53 39q47 0 58 -53q10 -49 10 -205h221v94q0 139 -41 219q-72 137 -248 137.5t-248 -137.5q-41 -80 -40 -219v-856z M287 244v456q2 23 19.5 42.5t48 19.5t49 -24.5t18.5 -43.5v-450q0 -18 -18.5 -43t-49.5 -25q-33 0 -50 24t-17 44z" />
<glyph unicode="7" horiz-adv-x="589" d="M8 1286h332l-225 -1286h229l221 1284v221h-557v-219z" />
<glyph unicode="8" horiz-adv-x="696" d="M53 322q0 -45 13 -105q18 -92 77 -154q76 -80 205 -79.5t205 79.5q59 61 78 154q12 60 12 105v176q0 188 -115 297q102 102 103 276v127q0 100 -37 176q-72 147 -246 148q-172 0 -244 -148q-39 -80 -38 -176v-127q0 -174 102 -276q-115 -109 -115 -297v-176zM270.5 416 q-2.5 129 10.5 194q10 66 67.5 66t69.5 -66q10 -71 10 -200q0 -98 -10 -164q-12 -59 -70 -60q-47 0 -61 52q-14 49 -16.5 178zM284 1119q1 118 15 163q12 45 49 45q43 0 55 -51q11 -58 11 -156q0 -115 -11 -172q-12 -55 -55 -55q-45 0 -53 55q-12 53 -11 171z" />
<glyph unicode="9" horiz-adv-x="700" d="M57 340q0 -139 41 -217q72 -139 248 -139t248 139q41 78 41 217v856q0 109 -43 190q-74 135 -246 135.5t-246 -135.5q-43 -81 -43 -190v-293q0 -115 37 -190q61 -127 209 -127q47 0 111 37v-283q0 -86 -13 -125q-14 -39 -55 -39q-47 0 -57 53q-10 49 -10 205h-222v-94z M279 825v437q0 18 18 42.5t49 24.5q33 0 50.5 -23.5t17.5 -43.5v-443q-2 -23 -19.5 -42t-48.5 -19t-49 24.5t-18 42.5z" />
<glyph unicode=":" horiz-adv-x="362" d="M74 0h215v227h-215v-227zM74 893h215v227h-215v-227z" />
<glyph unicode=";" horiz-adv-x="362" d="M74 0h71l-71 -266h102l113 266v227h-215v-227zM74 893h215v227h-215v-227z" />
<glyph unicode="&#x3c;" horiz-adv-x="1058" d="M74 649l911 -475v199l-698 356l698 356v199l-911 -475v-160z" />
<glyph unicode="=" horiz-adv-x="1058" d="M74 477h911v172h-911v-172zM74 864h911v172h-911v-172z" />
<glyph unicode="&#x3e;" horiz-adv-x="1058" d="M74 174l911 475v160l-911 475v-199l698 -356l-698 -356v-199z" />
<glyph unicode="?" horiz-adv-x="645" d="M25 1260l178 -84q18 53 43 90q41 55 88 55q41 0 59 -37q12 -31 8 -57q-10 -41 -53 -113q-66 -111 -92 -182q-45 -125 -45 -270v-256h190v256q0 55 13 108q23 86 71 172q8 12 22.5 37t16.5 29q80 137 80 219q0 96 -45 172q-68 113 -221 114q-125 2 -217 -100 q-74 -84 -96 -153zM199 0h215v227h-215v-227z" />
<glyph unicode="@" horiz-adv-x="872" d="M66 303q0 -104 75 -194q102 -125 299 -125q211 0 320 143l-152 86q-51 -63 -168 -63q-100 0 -151 59q-39 41 -39 94v889q0 49 39 96q53 61 151 62q100 0 154 -62q37 -45 37 -96v-45q-6 12 -27 33q-39 35 -86 34q-145 0 -145 -170v-485q0 -172 145 -172q27 0 51 10 q41 20 62 58l20 -56h164v793q0 111 -74 203q-104 127 -301 127q-199 0 -299 -127q-76 -92 -75 -203v-889zM535 573v455q0 53 47 53q49 0 49 -53v-455q0 -53 -49 -53q-47 0 -47 53z" />
<glyph unicode="A" horiz-adv-x="765" d="M20 0h216l40 307h213l41 -307h215l-227 1505h-270zM307 541l64 475l6 39h12l6 -39l64 -475h-152z" />
<glyph unicode="B" horiz-adv-x="745" d="M82 0h272q186 8 271 135q71 108 71 286q0 59 -6 106.5t-18 82.5q-47 139 -129 185q80 72 108 137q29 63 29 174q0 215 -102 311q-94 88 -302 88h-194v-1505zM303 219v463q68 0 98 -23q66 -47 66 -208.5t-66 -208.5q-30 -23 -98 -23zM303 885v401q66 0 98 -22 q66 -43 66 -178.5t-66 -178.5q-35 -22 -98 -22z" />
<glyph unicode="C" horiz-adv-x="708" d="M68 309q4 -94 36 -164q31 -70 86 -110q63 -51 172 -51q106 0 170 51q57 43 89 110q33 70 36 164v207h-206v-207q0 -37 -9 -55q-18 -55 -75 -55q-27 0 -43 16q-33 35 -35 94v887q4 39 10 55q20 55 68 56q35 0 51 -17q33 -35 33 -94v-207h206v207q-4 92 -36 162 q-31 70 -89 112q-68 51 -170 52q-104 0 -172 -52q-53 -41 -86 -112q-33 -70 -36 -162v-887z" />
<glyph unicode="D" horiz-adv-x="761" d="M82 0h174q156 0 244 36t131 120q41 80 53 215t12 380.5t-12 382t-53 216.5q-43 84 -131 119.5t-244 35.5h-174v-1505zM303 221v1063q63 0 94 -15.5t47 -64.5q18 -63 21 -160q2 -72 2 -290.5t-2 -290.5q-2 -100 -21 -160q-16 -51 -47 -66.5t-94 -15.5z" />
<glyph unicode="E" horiz-adv-x="628" d="M82 0h506v227h-285v414h205v242h-205v395h285v227h-506v-1505z" />
<glyph unicode="F" horiz-adv-x="616" d="M82 0h221v655h205v228h-205v395h305v227h-526v-1505z" />
<glyph unicode="G" horiz-adv-x="737" d="M68 309v-23q0 -78 24 -141q27 -70 78 -110q57 -51 158 -51q102 0 172 88l26 -72h131v750h-309v-187h88v-272q0 -37 -8 -55q-14 -55 -66 -56q-27 0 -43 17q-31 33 -30 94v905q0 33 8 55q16 55 65 56q29 0 46 -17q29 -35 28 -94v-231h221v231q-4 92 -36 162q-31 70 -89 112 q-68 51 -170 52q-104 0 -172 -52q-53 -41 -86 -112q-33 -70 -36 -162v-887z" />
<glyph unicode="H" horiz-adv-x="778" d="M82 0h221v655h172v-655h221v1505h-221v-622h-172v622h-221v-1505z" />
<glyph unicode="I" horiz-adv-x="385" d="M82 0h221v1505h-221v-1505z" />
<glyph unicode="J" horiz-adv-x="423" d="M12 -14q21 -1 41 -1q153 0 228 81q72 78 71 213v1226h-221v-1192q0 -52 -18 -73q-29 -39 -79 -39q-10 0 -22 2v-217z" />
<glyph unicode="K" horiz-adv-x="768" d="M82 0h221v532l51 123l13 31h6l6 -31l153 -655h216l-230 1010l203 495h-215l-184 -501l-11 -25h-8v526h-221v-1505z" />
<glyph unicode="L" horiz-adv-x="604" d="M82 0h514v205h-293v1300h-221v-1505z" />
<glyph unicode="M" horiz-adv-x="991" d="M82 0h205v1010h12l8 -64l142 -946h94l141 946l8 64h13v-1010h204v1505h-270l-131 -688l-10 -80h-4l-11 80l-131 688h-270v-1505z" />
<glyph unicode="N" horiz-adv-x="808" d="M82 0h203v854h12l18 -70l215 -784h197v1505h-203v-854h-12l-18 70l-215 784h-197v-1505z" />
<glyph unicode="O" horiz-adv-x="724" d="M68 309q4 -94 36 -164q31 -70 86 -110q63 -51 172 -51q106 0 170 51q57 43 89 110q32 70 36 164v887q-4 92 -36 162q-31 70 -89 112q-68 51 -170 52q-104 0 -172 -52q-53 -41 -86 -112q-33 -70 -36 -162v-887zM289 309v887q0 33 8 55q16 55 65 56q29 0 46 -17 q28 -35 28 -94v-887q0 -37 -8 -55q-14 -55 -66 -55q-27 0 -43 16q-31 33 -30 94z" />
<glyph unicode="P" horiz-adv-x="720" d="M82 0h221v602q162 0 266 98q123 117 123 355q0 240 -123 356q-100 94 -266 94h-221v-1505zM303 827v453q100 0 135 -53q31 -47 31 -180q0 -131 -31 -173q-33 -47 -135 -47z" />
<glyph unicode="Q" horiz-adv-x="729" d="M68 309q4 -94 36 -164q31 -70 86 -110q63 -51 172 -51q55 0 111 18q72 -117 227 -117v189q-55 10 -88 53q23 49 27 66q18 64 18 116v887q-4 92 -36 162q-31 70 -89 112q-68 51 -170 52q-104 0 -172 -52q-53 -41 -86 -112q-33 -70 -36 -162v-887zM289 309v887q0 33 8 55 q16 55 65 56q29 0 46 -17q28 -35 28 -94v-887q0 -37 -8 -55q-14 -55 -66 -55q-27 0 -43 16q-31 33 -30 94z" />
<glyph unicode="R" horiz-adv-x="739" d="M82 0h221v635h59l115 -635h221l-141 729q123 84 123 342q0 217 -91 325.5t-286 108.5h-221v-1505zM303 840v446q70 0 105 -31q59 -51 59 -192q0 -139 -59 -191q-37 -32 -105 -32z" />
<glyph unicode="S" horiz-adv-x="702" d="M37 422q0 -203 55 -303q74 -135 266 -135q166 0 244 114q63 94 64 264q0 109 -66 236q-43 84 -141 229q-100 150 -119 181q-55 96 -55 161q0 147 75 150q47 0 72 -70q17 -49 17 -147l217 20q0 162 -56 267q-73 133 -249 133h-5q-143 -2 -223 -115q-65 -93 -65 -234 q0 -67 18 -124q33 -117 109 -234q70 -109 139 -207q12 -18 31.5 -50t25.5 -40q57 -104 58 -166q0 -166 -91 -166q-61 0 -86 82q-18 53 -18 174z" />
<glyph unicode="T" horiz-adv-x="647" d="M4 1278h209v-1278h221v1278h209v227h-639v-227z" />
<glyph unicode="U" horiz-adv-x="749" d="M80 309q4 -94 37 -164q31 -70 86 -110q63 -51 172 -51q106 0 170 51q57 43 88 110q33 70 37 164v1196h-221v-1196q0 -37 -9 -55q-14 -55 -65 -55q-27 0 -43 16q-31 33 -31 94v1196h-221v-1196z" />
<glyph unicode="V" horiz-adv-x="716" d="M18 1505l230 -1505h221l229 1505h-215l-110 -827l-8 -64h-13l-8 64l-111 827h-215z" />
<glyph unicode="W" horiz-adv-x="1036" d="M25 1505l202 -1505h172l103 713l12 88h8l13 -88l102 -713h172l203 1505h-205l-88 -782l-4 -49h-17l-6 49l-94 782h-160l-94 -782l-6 -49h-16l-5 49l-88 782h-204z" />
<glyph unicode="X" horiz-adv-x="737" d="M16 0h217l127 449l5 18h8l4 -18l127 -449h217l-244 791l240 714h-217l-121 -381l-6 -18h-8l-7 18l-120 381h-218l240 -714z" />
<glyph unicode="Y" horiz-adv-x="700" d="M14 1505l226 -864v-641h221v641l225 864h-217l-111 -481l-6 -14h-4l-6 14l-111 481h-217z" />
<glyph unicode="Z" horiz-adv-x="626" d="M20 0h586v219h-352l352 1067v219h-536v-219h297l-347 -1048v-238z" />
<glyph unicode="[" horiz-adv-x="538" d="M82 -213h399v197h-202v1325h202v196h-399v-1718z" />
<glyph unicode="\" horiz-adv-x="792" d="M8 1692l608 -1872h168l-614 1872h-162z" />
<glyph unicode="]" horiz-adv-x="538" d="M57 -16v-197h400v1718h-400v-196h203v-1325h-203z" />
<glyph unicode="^" horiz-adv-x="1101" d="M53 809h199l299 543l299 -543h199l-381 696h-234z" />
<glyph unicode="_" horiz-adv-x="1210" d="M74 -154v-172h1063v172h-1063z" />
<glyph unicode="`" horiz-adv-x="1024" d="M293 1489l162 -184h159l-106 184h-215z" />
<glyph unicode="a" horiz-adv-x="661" d="M49 260q0 -154 64 -225q41 -51 102 -51q59 0 109 39q35 27 57 67h14q0 -68 19 -90h202q-14 86 -14 195v688q0 111 -75.5 182.5t-176.5 71.5q-121 0 -198 -88q-80 -90 -80 -211v-47h207v53q0 20 4 53q10 59 55 59q37 0 51 -34q6 -21 6 -68v-123q-8 -20 -98 -67 q-102 -53 -162 -127q-86 -106 -86 -277zM252 291q0 189 143 250v-287q0 -29 -25.5 -48.5t-60.5 -19.5q-33 0 -47 43q-10 29 -10 62z" />
<glyph unicode="b" d="M82 0h207v74q33 -29 53 -45q61 -45 111 -45q76 0 122 75q37 61 37 144v715q0 82 -37 145q-47 74 -122 74q-31 0 -58 -15q-49 -23 -106 -75v458h-207v-1505zM289 246v628q0 25 19.5 46.5t42 21.5t39 -19.5t16.5 -48.5v-628q0 -29 -16.5 -48.5t-39.5 -19.5q-25 0 -43 19.5 t-18 48.5z" />
<glyph unicode="c" horiz-adv-x="645" d="M66 315q0 -178 75 -260q65 -71 186 -71h3q137 0 198 67q68 74 68 254v109h-207v-156q0 -51 -12 -70.5t-47 -19.5q-58 0 -58 90v604q0 90 58 90q35 0 47 -19.5t12 -70.5v-135h207v88q0 180 -68 254q-61 68 -198 68q-123 0 -189 -72q-76 -82 -75 -260v-490z" />
<glyph unicode="d" d="M74 203q0 -84 39 -144q42 -75 118 -75h2q31 0 60 14q49 23 104 76v-74h207v1505h-207v-458q-33 29 -53 45q-61 45 -111 45q-76 0 -120 -74q-39 -63 -39 -145v-715zM281 246v628q0 29 16 48.5t38.5 19.5t42 -21.5t19.5 -46.5v-628q0 -29 -18.5 -48.5t-42.5 -19.5 q-23 0 -39 19.5t-16 48.5z" />
<glyph unicode="e" horiz-adv-x="659" d="M66 279q2 -78 32 -148q66 -147 234 -147q102 0 155 45q104 84 113 243v129h-192v-122q0 -35 -9 -58q-14 -55 -65 -55q-27 0 -43 16q-31 37 -33 97v243h342v326q-2 74 -33 143q-66 145 -233 146q-102 0 -154 -45q-106 -88 -114 -250v-563zM258 684v158q4 39 10 57 q18 57 66 57q29 0 45 -16q29 -35 29 -98v-158h-150z" />
<glyph unicode="f" horiz-adv-x="475" d="M20 934h105v-934h207v934h104v186h-104v29v49q0 31 6 62q14 69 58 69h1q14 0 43 -4q2 -2 8.5 -2t10.5 -2v178l-25 6q-23 8 -72 8q-156 0 -206 -137q-31 -82 -31 -225v-31h-105v-186z" />
<glyph unicode="g" horiz-adv-x="700" d="M12 -184q0 -117 92 -168q80 -45 240 -49q145 0 242 61q112 73 112 222q0 134 -94 200q-72 49 -192 63q-74 12 -107 23q-51 14 -51 47q0 27 29 51q6 -2 20 -2h19q96 0 151 43q107 82 115 234v317q0 14 -2 20.5t-2 22.5q-2 6 -6 27q41 24 114 24h6v185q-43 0 -98 -41 q-33 -23 -72 -62q-72 102 -206 103q-98 0 -150 -45q-100 -84 -113 -240v-305q2 -41 17 -92q29 -104 102 -152q-49 -27 -86 -72q-43 -53 -43 -96q0 -115 125 -149q-74 -35 -111 -70q-51 -47 -51 -100zM213 -150q0 56 76 99l106 -21q70 -10 94 -32q16 -16 17 -48 q0 -37 -53 -57q-47 -18 -105 -18q-135 0 -135 77zM262 537v307v13q0 20 4 38q12 51 56 51q27 0 38 -16q25 -33 25 -86v-307q0 -29 -6 -52q-16 -49 -57 -49q-25 0 -37 17q-23 27 -23 76v8z" />
<glyph unicode="h" horiz-adv-x="690" d="M82 0h207v883q6 10 18 26q27 27 49 27q49 0 50 -49v-887h206v918q0 82 -37 145q-45 74 -118 74q-27 0 -54 -15q-37 -20 -90 -73q-20 -20 -24 -23v479h-207v-1505z" />
<glyph unicode="i" horiz-adv-x="370" d="M82 0h207v1120h-207v-1120zM82 1298h207v207h-207v-207z" />
<glyph unicode="j" horiz-adv-x="364" d="M-45 -182v-191q12 -4 20 -6q23 -6 70 -6q158 0 209 135q29 74 29 221v1149h-207v-1147v-47q0 -20 -4 -53q-14 -63 -60 -63q-10 0 -39 4q-2 2 -8 2t-10 2zM76 1298h207v207h-207v-207z" />
<glyph unicode="k" horiz-adv-x="641" d="M82 0h207v387l26 66l7 16h10l4 -16l102 -453h199l-188 756l149 364h-186l-101 -293l-12 -36h-10v714h-207v-1505z" />
<glyph unicode="l" horiz-adv-x="370" d="M82 0h207v1505h-207v-1505z" />
<glyph unicode="m" horiz-adv-x="1021" d="M82 0h207v883q6 10 22 26q27 27 56 27q55 0 55 -49v-887h194v883q6 10 23 26q27 27 55 27q55 0 56 -49v-887h194v918q0 82 -37 145q-45 74 -119 74q-27 0 -55 -17q-61 -35 -100 -78q-25 -25 -33 -30q-43 125 -139 125q-27 0 -53 -15q-45 -27 -95 -73q-20 -20 -24 -23v94 h-207v-1120z" />
<glyph unicode="n" horiz-adv-x="690" d="M82 0h207v883q6 10 18 26q27 27 49 27q49 0 50 -49v-887h206v918q0 82 -37 145q-45 74 -118 74q-27 0 -54 -15q-37 -20 -90 -73q-20 -20 -24 -23v94h-207v-1120z" />
<glyph unicode="o" horiz-adv-x="657" d="M63 279q2 -78 33 -148q66 -147 232 -147q102 0 155 45q103 83 111 243v576q-2 74 -33 143q-66 145 -233 146q-102 0 -154 -45q-100 -86 -111 -250v-563zM258 279v563v13q0 25 6 44q14 57 64 57q29 0 45 -16q26 -33 26 -90v-8v-563v-13q0 -25 -6 -45q-14 -55 -65 -55 q-27 0 -43 16q-27 35 -27 89v8z" />
<glyph unicode="p" d="M82 -385h207v459q33 -29 53 -45q61 -45 111 -45q76 0 122 75q37 61 37 144v715q0 82 -37 145q-47 74 -122 74q-31 0 -58 -15q-49 -23 -106 -75v73h-207v-1505zM289 246v628q0 29 18.5 48.5t42.5 19.5q23 0 39.5 -19.5t16.5 -48.5v-628q0 -29 -16.5 -48.5t-39 -19.5 t-42 21.5t-19.5 46.5z" />
<glyph unicode="q" d="M74 203q0 -84 39 -144q42 -75 118 -75h2q31 0 60 14q49 23 104 76v-459h207v1505h-207v-73q-33 29 -53 45q-61 45 -111 45q-76 0 -120 -74q-39 -63 -39 -145v-715zM281 246v628q0 29 16 48.5t39 19.5q25 0 43 -19.5t18 -48.5v-628q0 -25 -19.5 -46.5t-42 -21.5 t-38.5 19.5t-16 48.5z" />
<glyph unicode="r" horiz-adv-x="503" d="M82 0h207v778q0 63 45 103q36 34 100 34h4q33 0 58 -8v230q-94 0 -158 -60q-43 -43 -49 -82v125h-207v-1120z" />
<glyph unicode="s" horiz-adv-x="630" d="M37 326q0 -131 49 -215q74 -127 240 -127q133 0 206 102q57 80 58 205q0 94 -62 194q-31 49 -129 148q-59 57 -90 96q-45 55 -45 105q0 57 12 86q14 45 52 45q41 0 59 -45q8 -27 8 -86h193q0 131 -41 200q-60 103 -220 103h-3q-133 -2 -201 -103q-51 -78 -51 -200 q0 -104 63 -199q33 -49 133 -146q129 -129 129 -198q0 -135 -71 -135q-53 0 -80 63q-16 37 -17 107h-192z" />
<glyph unicode="t" horiz-adv-x="501" d="M20 934h105v-574q0 -154 31 -237q51 -139 206 -139q49 0 80 6q4 2 14.5 4t16.5 4v203q-4 0 -12 -2t-12 -2q-29 -4 -52 -4q-43 0 -57 67q-8 37 -8 117v557h141v186h-141v277h-207v-277h-105v-186z" />
<glyph unicode="u" horiz-adv-x="690" d="M78 203q0 -82 37 -144q42 -75 116 -75h2q27 0 56 16q37 20 90 74q18 18 22 20v-94h207v1120h-207v-882q-12 -20 -18 -27q-27 -27 -49 -27q-49 0 -49 49v887h-207v-917z" />
<glyph unicode="v" horiz-adv-x="602" d="M16 1120l183 -1120h204l183 1120h-201l-68 -649l-8 -72h-16l-8 72l-68 649h-201z" />
<glyph unicode="w" horiz-adv-x="905" d="M20 1120l166 -1120h172l80 535l11 63h8l10 -63l80 -535h172l166 1120h-189l-65 -585l-8 -64h-13l-10 64l-86 585h-123l-86 -585l-10 -64h-12l-9 64l-65 585h-189z" />
<glyph unicode="x" horiz-adv-x="618" d="M16 0h201l84 283l6 30h4l6 -30l84 -283h201l-192 578l176 542h-195l-74 -262l-6 -31h-4l-6 31l-74 262h-194l176 -542z" />
<glyph unicode="y" horiz-adv-x="634" d="M25 1120l190 -1153q0 -35 -8 -61q-18 -66 -68 -103q-28 -21 -65 -21q-14 0 -29 3q-10 0 -12 2v-184q49 -4 67 -4h25q113 0 197 100q74 88 90 217l198 1204h-202l-82 -688l-4 -57h-9l-4 57l-82 688h-202z" />
<glyph unicode="z" horiz-adv-x="532" d="M12 0h504v188h-285l285 764v168h-459v-188h240l-285 -764v-168z" />
<glyph unicode="{" horiz-adv-x="688" d="M61 453q72 -2 107 -62q25 -43 25 -78v-397q0 -221 100 -301q90 -72 338 -68v172q-139 0 -187 37q-55 43 -55 160v397q0 139 -127 222q127 78 127 221v397q0 117 55 160q48 37 187 37v172q-248 4 -338 -68q-100 -80 -100 -301v-397q0 -39 -25 -80q-33 -59 -107 -60v-163z " />
<glyph unicode="|" horiz-adv-x="356" d="M82 -512h192v2204h-192v-2204z" />
<glyph unicode="}" horiz-adv-x="688" d="M57 -281v-172q250 -4 340 68q98 78 99 301v397q0 35 24 78q35 59 107 62v163q-74 0 -107 60q-24 41 -24 80v397q0 223 -99 301q-90 72 -340 68v-172q139 0 187 -37q55 -43 55 -160v-397q0 -143 127 -221q-127 -82 -127 -222v-397q0 -117 -55 -160q-47 -37 -187 -37z" />
<glyph unicode="~" horiz-adv-x="1280" d="M113 1352l135 -58q16 45 47 90q63 90 154 91q70 0 178 -74q51 -33 82.5 -50.5t84 -34t105.5 -16.5q82 0 145 48q119 94 181 262l-135 57q-25 -59 -48 -92q-59 -90 -143 -90q-72 0 -174 71q-2 2 -28.5 18.5t-32 18.5t-29 16.5t-33.5 17.5t-32.5 12.5t-38 11.5t-38 5 t-44.5 3q-88 0 -154 -47q-127 -100 -182 -260z" />
<glyph unicode="&#xa2;" horiz-adv-x="636" d="M66 508q0 -299 208 -330v-301h123v303q96 14 143.5 88t47.5 230v108h-189v-155q0 -90 -73 -91q-72 0 -72 91v604q0 90 72 90q74 0 73 -90v-135h189v88q0 154 -47 229q-47 70 -144 86v244h-123v-242q-209 -31 -208 -328v-489z" />
<glyph unicode="&#xa3;" horiz-adv-x="817" d="M4 63l146 -79q10 29 28 51q39 51 86 51q31 0 129.5 -51t143.5 -51q102 0 170.5 99t80.5 282l-188 22q-2 -104 -29 -145q-25 -41 -53 -45q-39 4 -63 22q-35 20 -70 37q57 117 57 219q0 74 -24 174h174v137h-211l-6 25q-70 229 -70 338q0 72 21 113q25 55 69 55 q66 0 92 -60q23 -51 23 -137h213q0 178 -66 279q-84 125 -266 123q-152 -2 -231 -123q-63 -96 -64 -250q0 -84 78 -342l6 -21h-147v-137h188q31 -106 31 -174q0 -94 -37 -199q-49 -8 -92 -45q-74 -68 -119 -168z" />
<glyph unicode="&#xa5;" horiz-adv-x="720" d="M25 1505l196 -753h-147v-138h176v-137h-176v-137h176v-340h221v340h176v137h-176v137h176v138h-147l196 753h-217l-110 -481l-7 -14h-4l-6 14l-110 481h-217z" />
<glyph unicode="&#xa9;" horiz-adv-x="1644" d="M53 752q0 -317 225.5 -542.5t542.5 -225.5q319 0 544.5 225t225.5 543q0 319 -225 544.5t-545 225.5q-317 0 -542.5 -225.5t-225.5 -544.5zM172 752q0 268 193 460q190 190 456 191q270 0 461 -190.5t191 -460.5q0 -266 -191 -457q-193 -193 -461 -193q-264 0 -456.5 193 t-192.5 457zM627 487q0 -53 22 -98q49 -98 170 -98q72 0 109 31q72 59 80 165v125h-138v-125q2 -16 -4 -32q-12 -31 -45 -31q-18 0 -28 10q-20 18 -21 53v531q0 15 6 31q12 33 43 32q20 0 31 -10q20 -20 18 -53v-125h138v125q-3 55 -25 98q-49 98 -164 98q-74 0 -112 -30 q-80 -63 -80 -166v-531z" />
<glyph unicode="&#xad;" horiz-adv-x="444" d="M74 455h297v194h-297v-194z" />
<glyph unicode="&#xae;" horiz-adv-x="1644" d="M53 752q0 -317 225.5 -542.5t542.5 -225.5q319 0 544.5 225t225.5 543q0 319 -225 544.5t-545 225.5q-317 0 -542.5 -225.5t-225.5 -544.5zM172 752q0 268 193 460q190 190 456 191q270 0 461 -190.5t191 -460.5q0 -266 -191 -457q-193 -193 -461 -193q-264 0 -456.5 193 t-192.5 457zM625 313h145v365h55l95 -365h151l-106 400q55 47 71.5 95t16.5 126q-1 258 -232 258h-196v-879zM770 805v258h45q61 0 84 -43q14 -29 14 -88q0 -57 -14 -86q-20 -41 -84 -41h-45z" />
<glyph unicode="&#xb4;" horiz-adv-x="1024" d="M410 1305h159l162 184h-215z" />
<glyph unicode="&#x2000;" horiz-adv-x="846" />
<glyph unicode="&#x2001;" horiz-adv-x="1692" />
<glyph unicode="&#x2002;" horiz-adv-x="846" />
<glyph unicode="&#x2003;" horiz-adv-x="1692" />
<glyph unicode="&#x2004;" horiz-adv-x="564" />
<glyph unicode="&#x2005;" horiz-adv-x="423" />
<glyph unicode="&#x2006;" horiz-adv-x="282" />
<glyph unicode="&#x2007;" horiz-adv-x="282" />
<glyph unicode="&#x2008;" horiz-adv-x="211" />
<glyph unicode="&#x2009;" horiz-adv-x="338" />
<glyph unicode="&#x200a;" horiz-adv-x="94" />
<glyph unicode="&#x2010;" horiz-adv-x="444" d="M74 455h297v194h-297v-194z" />
<glyph unicode="&#x2011;" horiz-adv-x="444" d="M74 455h297v194h-297v-194z" />
<glyph unicode="&#x2012;" horiz-adv-x="444" d="M74 455h297v194h-297v-194z" />
<glyph unicode="&#x2013;" horiz-adv-x="806" d="M74 649h659v195h-659v-195z" />
<glyph unicode="&#x2014;" horiz-adv-x="972" d="M74 649h825v195h-825v-195z" />
<glyph unicode="&#x2018;" horiz-adv-x="309" d="M49 1012h215v227h-71l71 266h-102l-113 -266v-227z" />
<glyph unicode="&#x2019;" horiz-adv-x="309" d="M45 1012h102l113 266v227h-215v-227h72z" />
<glyph unicode="&#x201c;" horiz-adv-x="624" d="M53 1012h215v227h-71l71 266h-102l-113 -266v-227zM356 1012h215v227h-71l71 266h-102l-113 -266v-227z" />
<glyph unicode="&#x201d;" horiz-adv-x="624" d="M53 1012h103l112 266v227h-215v-227h72zM356 1012h103l112 266v227h-215v-227h72z" />
<glyph unicode="&#x2022;" horiz-adv-x="663" d="M82 817q0 -104 73.5 -178t178.5 -74q102 0 176 74q72 72 72 178q0 104 -72 176t-176 72q-106 0 -178 -72q-74 -74 -74 -176z" />
<glyph unicode="&#x2026;" horiz-adv-x="964" d="M53 0h215v227h-215v-227zM375 0h215v227h-215v-227zM696 0h215v227h-215v-227z" />
<glyph unicode="&#x202f;" horiz-adv-x="338" />
<glyph unicode="&#x205f;" horiz-adv-x="423" />
<glyph unicode="&#x20ac;" horiz-adv-x="813" d="M53 547h107v-238q4 -94 37 -164q31 -70 86 -110q63 -51 172 -51q106 0 170 51q57 43 88 110q33 70 37 164v84h-207v-84q0 -37 -8 -55q-18 -55 -76 -55q-27 0 -43 16q-33 35 -35 94v238h233v137h-233v137h233v137h-233v238q4 39 10 55q20 55 68 56q35 0 51 -17 q33 -35 33 -94v-84h207v84q-4 92 -37 162q-31 70 -88 112q-68 51 -170 52q-104 0 -172 -52q-53 -41 -86 -112q-33 -70 -37 -162v-238h-107v-137h107v-137h-107v-137z" />
<glyph unicode="&#x2122;" horiz-adv-x="937" d="M74 1401h104v-580h113v580h104v104h-321v-104zM440 821h103v449l80 -449h51l78 449v-449h104v684h-137l-68 -319h-6l-67 319h-138v-684z" />
<glyph unicode="&#xe000;" horiz-adv-x="1120" d="M0 1120h1120v-1120h-1120v1120z" />
</font>
</defs>
</svg>
